<svg xmlns="http://www.w3.org/2000/svg" xmlns:xlink="http://www.w3.org/1999/xlink" width="1024" zoomAndPan="magnify" viewBox="0 0 768 767.999994" height="1024" preserveAspectRatio="xMidYMid meet" version="1.0"><defs><g/></defs><g fill="#ff6100" fill-opacity="1"><g transform="translate(105.798792, 683.200226)"><g><path d="M 385.328125 -601.828125 L 546.5625 -605.609375 L 526.125 -33.3125 L 497.375 2.265625 L 364.125 0.75 L 279.34375 -108.25 L 196.828125 1.515625 L 54.5 0 L 28.015625 -37.09375 L 28.015625 -42.390625 L 15.140625 -605.609375 L 170.328125 -601.0625 L 194.5625 -200.609375 L 277.078125 -306.59375 L 358.828125 -199.859375 Z M 385.328125 -601.828125 "/></g></g></g><g fill="#545454" fill-opacity="1"><g transform="translate(461.348596, 188.029302)"><g><path d="M 28.953125 -185.375 L 203.953125 -181.921875 L 203.953125 -116.234375 L 25.921875 -117.96875 Z M 28.953125 -185.375 "/></g></g></g><g fill="#545454" fill-opacity="1"><g transform="translate(105.798792, 878.693521)"><g><path d="M 28.953125 -185.375 L 203.953125 -181.921875 L 203.953125 -116.234375 L 25.921875 -117.96875 Z M 28.953125 -185.375 "/></g></g></g></svg>